<svg width="20" height="20" fill="none" xmlns="http://www.w3.org/2000/svg"><path d="M10.006 1.682c2.673 0 2.99.01 4.041.054.977.04 1.505.194 1.857.321.465.168.801.373 1.149.697.352.329.567.639.746 1.073.137.328.301.824.344 1.733.047.984.059 1.28.059 3.772 0 2.495-.012 2.79-.059 3.771-.043.912-.207 1.405-.344 1.733-.18.434-.398.748-.746 1.073a3.11 3.11 0 01-1.15.697c-.35.127-.882.28-1.856.32-1.055.044-1.372.055-4.041.055-2.674 0-2.99-.01-4.042-.055-.977-.04-1.504-.193-1.856-.32a3.125 3.125 0 01-1.15-.697 2.861 2.861 0 01-.746-1.073c-.137-.328-.3-.824-.344-1.732-.047-.985-.058-1.28-.058-3.772 0-2.496.011-2.791.058-3.772.043-.912.207-1.405.344-1.733.18-.434.399-.748.747-1.073a3.108 3.108 0 011.149-.697c.352-.127.883-.28 1.856-.32 1.052-.044 1.368-.055 4.042-.055zm0-1.682C7.289 0 6.949.01 5.882.055 4.82.098 4.088.259 3.455.489c-.66.24-1.22.558-1.774 1.08A4.558 4.558 0 00.524 3.22C.278 3.816.106 4.494.059 5.487.012 6.487 0 6.803 0 9.339c0 2.535.012 2.852.059 3.848.047.993.219 1.675.465 2.266a4.54 4.54 0 001.157 1.656 4.941 4.941 0 001.77 1.076c.637.23 1.364.39 2.427.434 1.067.044 1.408.055 4.124.055 2.716 0 3.056-.01 4.123-.055 1.064-.043 1.794-.204 2.428-.434a4.942 4.942 0 001.77-1.076 4.547 4.547 0 001.153-1.653c.246-.594.418-1.273.465-2.265.047-.996.059-1.313.059-3.849 0-2.535-.012-2.852-.059-3.848-.047-.992-.219-1.675-.465-2.266a4.352 4.352 0 00-1.145-1.66 4.94 4.94 0 00-1.77-1.076c-.638-.23-1.365-.39-2.428-.434C13.063.011 12.723 0 10.006 0z" fill="#fff"/><path d="M10.006 4.543c-2.838 0-5.14 2.149-5.14 4.797 0 2.649 2.302 4.797 5.14 4.797 2.837 0 5.14-2.149 5.14-4.797 0-2.648-2.303-4.797-5.14-4.797zm0 7.909c-1.841 0-3.334-1.394-3.334-3.112 0-1.718 1.493-3.112 3.334-3.112 1.84 0 3.334 1.394 3.334 3.112 0 1.718-1.493 3.112-3.334 3.112zm6.542-8.1c0 .62-.54 1.12-1.2 1.12-.664 0-1.199-.504-1.199-1.12 0-.62.54-1.12 1.2-1.12.66 0 1.199.504 1.199 1.12z" fill="#fff"/></svg>