<svg width="20" height="20" fill="none" xmlns="http://www.w3.org/2000/svg"><path d="M6.292 20c7.545 0 11.673-7.695 11.673-14.367 0-.216-.004-.437-.012-.654A9.649 9.649 0 0020 2.365a6.946 6.946 0 01-2.355.793c.856-.631 1.497-1.623 1.804-2.792a7.389 7.389 0 01-2.605 1.225C16.227.781 15.408.246 14.517.066c-.89-.18-1.805.008-2.601.532s-1.43 1.356-1.803 2.368a6.137 6.137 0 00-.262 3.23c-1.631-.101-3.227-.622-4.683-1.53C3.71 3.756 2.425 2.481 1.394.922.87 2.035.71 3.35.946 4.602c.236 1.251.85 2.346 1.718 3.06a3.54 3.54 0 01-1.86-.63v.063c0 1.166.328 2.297.928 3.2.6.902 1.436 1.521 2.365 1.751a3.339 3.339 0 01-1.851.087c.262 1.003.772 1.88 1.459 2.51.687.629 1.516.978 2.372 1-1.453 1.404-3.249 2.166-5.097 2.163-.327 0-.655-.026-.98-.074 1.877 1.482 4.061 2.27 6.292 2.268z" fill="#fff"/></svg>