<svg width="20" height="20" viewBox="0 0 20 20" fill="none" xmlns="http://www.w3.org/2000/svg">
<path d="M10.0059 1.68172C12.6793 1.68172 12.9959 1.69265 14.0473 1.73644C15.0244 1.77656 15.5521 1.92977 15.9039 2.05745C16.369 2.22527 16.7051 2.42955 17.053 2.75421C17.4047 3.08253 17.6197 3.39261 17.7994 3.82672C17.9363 4.15504 18.1004 4.65116 18.1434 5.55951C18.1903 6.54447 18.202 6.83995 18.202 9.33151C18.202 11.8267 18.1903 12.1222 18.1434 13.1035C18.1004 14.0155 17.9363 14.508 17.7994 14.8363C17.6197 15.2704 17.4009 15.5841 17.053 15.9088C16.7011 16.2371 16.369 16.4377 15.9039 16.6056C15.5521 16.7332 15.0206 16.8864 14.0473 16.9265C12.992 16.9704 12.6754 16.9813 10.0059 16.9813C7.33241 16.9813 7.01583 16.9704 5.96443 16.9265C4.9873 16.8864 4.45964 16.7332 4.10787 16.6056C3.64276 16.4377 3.30663 16.2335 2.95877 15.9088C2.607 15.5805 2.39203 15.2704 2.21223 14.8363C2.07543 14.508 1.91127 14.0119 1.86829 13.1035C1.82139 12.1186 1.80966 11.8231 1.80966 9.33151C1.80966 6.83629 1.82139 6.54081 1.86829 5.55951C1.91127 4.64752 2.07543 4.15504 2.21223 3.82672C2.39203 3.39261 2.6109 3.07889 2.95877 2.75421C3.31053 2.42591 3.64276 2.22527 4.10787 2.05745C4.45964 1.92977 4.9912 1.77656 5.96443 1.73644C7.01583 1.69265 7.33241 1.68172 10.0059 1.68172ZM10.0059 0C7.28943 0 6.94939 0.0109439 5.88236 0.0547196C4.81923 0.0984952 4.08833 0.259005 3.45514 0.488828C2.7946 0.729595 2.23569 1.04697 1.68067 1.56863C1.12175 2.08664 0.781709 2.60829 0.523744 3.22116C0.277506 3.81577 0.105531 4.49431 0.0586281 5.48655C0.0117256 6.48609 0 6.80347 0 9.3388C0 11.8741 0.0117256 12.1915 0.0586281 13.1874C0.105531 14.1796 0.277506 14.8619 0.523744 15.4528C0.781709 16.0693 1.12175 16.5909 1.68067 17.1089C2.23569 17.6269 2.7946 17.948 3.45124 18.1852C4.08833 18.4149 4.81531 18.5755 5.87844 18.6192C6.94547 18.6631 7.28551 18.674 10.002 18.674C12.7184 18.674 13.0584 18.6631 14.1255 18.6192C15.1886 18.5755 15.9194 18.4149 16.5527 18.1852C17.2093 17.948 17.7683 17.6269 18.3233 17.1089C18.8783 16.5909 19.2221 16.0693 19.4763 15.4564C19.7224 14.8619 19.8944 14.1833 19.9414 13.1911C19.9883 12.1952 20 11.8778 20 9.34245C20 6.80712 19.9883 6.48975 19.9414 5.49384C19.8944 4.5016 19.7224 3.81943 19.4763 3.22845C19.23 2.60829 18.89 2.08664 18.331 1.56863C17.776 1.05062 17.2171 0.729595 16.5604 0.492476C15.9234 0.262653 15.1964 0.102143 14.1333 0.0583676C13.0623 0.0109439 12.7223 0 10.0059 0Z" fill="white"/>
<path d="M10.0058 4.54297C7.16822 4.54297 4.86609 6.69162 4.86609 9.34005C4.86609 11.9885 7.16822 14.1371 10.0058 14.1371C12.8434 14.1371 15.1456 11.9885 15.1456 9.34005C15.1456 6.69162 12.8434 4.54297 10.0058 4.54297ZM10.0058 12.4518C8.1649 12.4518 6.67183 11.0582 6.67183 9.34005C6.67183 7.62185 8.1649 6.22833 10.0058 6.22833C11.8467 6.22833 13.3398 7.62185 13.3398 9.34005C13.3398 11.0582 11.8467 12.4518 10.0058 12.4518Z" fill="white"/>
<path d="M16.5479 4.35192C16.5479 4.97184 16.0088 5.47141 15.3485 5.47141C14.6843 5.47141 14.149 4.96818 14.149 4.35192C14.149 3.73201 14.6882 3.23242 15.3485 3.23242C16.0088 3.23242 16.5479 3.73565 16.5479 4.35192Z" fill="white"/>
</svg>
