<svg width="20" height="20" viewBox="0 0 20 20" fill="none" xmlns="http://www.w3.org/2000/svg">
<path d="M6.2918 20C13.8371 20 17.9653 12.3046 17.9653 5.63322C17.9653 5.41688 17.9614 5.19574 17.9535 4.9794C18.7565 4.26466 19.4496 3.37935 20 2.36508C19.2521 2.7746 18.458 3.04206 17.6449 3.15831C18.5011 2.52672 19.1421 1.53451 19.4492 0.365626C18.6437 0.953083 17.763 1.36748 16.8445 1.59106C16.2257 0.781811 15.4075 0.245989 14.5164 0.0664421C13.6254 -0.113106 12.711 0.0736208 11.9148 0.597751C11.1186 1.12188 10.4848 1.95423 10.1115 2.96609C9.73825 3.97795 9.64619 5.11299 9.84961 6.19571C8.21875 6.09499 6.62327 5.57357 5.16665 4.66529C3.71002 3.75702 2.42475 2.48214 1.39414 0.923299C0.870332 2.03477 0.710047 3.35 0.945859 4.60171C1.18167 5.8534 1.79589 6.94762 2.66367 7.662C2.01219 7.63654 1.37498 7.42066 0.804688 7.0322V7.09471C0.804104 8.26111 1.13175 9.39177 1.73193 10.2945C2.3321 11.1972 3.16777 11.8163 4.09687 12.0464C3.49337 12.2497 2.85999 12.2793 2.2457 12.133C2.50787 13.1361 3.01798 14.0135 3.70481 14.6426C4.39164 15.2718 5.22094 15.6212 6.07695 15.6425C4.62369 17.0474 2.82847 17.8094 0.980469 17.8058C0.652739 17.8052 0.325333 17.7805 0 17.7318C1.87737 19.2142 4.06128 20.0014 6.2918 20Z" fill="white"/>
</svg>
